<mxfile host="Electron" modified="2023-10-09T12:15:21.175Z" agent="Mozilla/5.0 (Windows NT 10.0; Win64; x64) AppleWebKit/537.36 (KHTML, like Gecko) draw.io/21.6.5 Chrome/114.0.5735.243 Electron/25.3.1 Safari/537.36" etag="agOlMQ9RDc3WEddud2mJ" version="21.6.5" type="device">
  <diagram id="C5RBs43oDa-KdzZeNtuy" name="Page-1">
    <mxGraphModel dx="1050" dy="621" grid="1" gridSize="10" guides="1" tooltips="1" connect="1" arrows="1" fold="1" page="1" pageScale="1" pageWidth="827" pageHeight="1169" background="none" math="0" shadow="0">
      <root>
        <mxCell id="WIyWlLk6GJQsqaUBKTNV-0" />
        <mxCell id="WIyWlLk6GJQsqaUBKTNV-1" parent="WIyWlLk6GJQsqaUBKTNV-0" />
        <mxCell id="IpHw89K4-DccxEpRs5BE-0" value="&lt;b&gt;Admin_Master&lt;/b&gt;" style="rounded=0;whiteSpace=wrap;html=1;strokeWidth=1;" parent="WIyWlLk6GJQsqaUBKTNV-1" vertex="1">
          <mxGeometry x="18.25" y="290" width="120" height="30" as="geometry" />
        </mxCell>
        <mxCell id="IpHw89K4-DccxEpRs5BE-2" value="ad_email_id" style="ellipse;whiteSpace=wrap;html=1;strokeWidth=1;" parent="WIyWlLk6GJQsqaUBKTNV-1" vertex="1">
          <mxGeometry x="98.25" y="225" width="90" height="30" as="geometry" />
        </mxCell>
        <mxCell id="IpHw89K4-DccxEpRs5BE-3" value="ad_password" style="ellipse;whiteSpace=wrap;html=1;strokeWidth=1;" parent="WIyWlLk6GJQsqaUBKTNV-1" vertex="1">
          <mxGeometry x="155.75" y="270" width="100" height="30" as="geometry" />
        </mxCell>
        <mxCell id="IpHw89K4-DccxEpRs5BE-5" value="" style="endArrow=none;html=1;rounded=0;exitX=0.5;exitY=1;exitDx=0;exitDy=0;entryX=0.75;entryY=0;entryDx=0;entryDy=0;strokeWidth=1;" parent="WIyWlLk6GJQsqaUBKTNV-1" source="IpHw89K4-DccxEpRs5BE-2" target="IpHw89K4-DccxEpRs5BE-0" edge="1">
          <mxGeometry width="50" height="50" relative="1" as="geometry">
            <mxPoint x="368.25" y="350" as="sourcePoint" />
            <mxPoint x="418.25" y="300" as="targetPoint" />
          </mxGeometry>
        </mxCell>
        <mxCell id="IpHw89K4-DccxEpRs5BE-6" value="" style="endArrow=none;html=1;rounded=0;entryX=0;entryY=1;entryDx=0;entryDy=0;exitX=1;exitY=0.75;exitDx=0;exitDy=0;strokeWidth=1;" parent="WIyWlLk6GJQsqaUBKTNV-1" source="IpHw89K4-DccxEpRs5BE-0" target="IpHw89K4-DccxEpRs5BE-3" edge="1">
          <mxGeometry width="50" height="50" relative="1" as="geometry">
            <mxPoint x="368.25" y="350" as="sourcePoint" />
            <mxPoint x="418.25" y="300" as="targetPoint" />
          </mxGeometry>
        </mxCell>
        <mxCell id="IpHw89K4-DccxEpRs5BE-7" value="" style="endArrow=none;html=1;rounded=0;exitX=0.5;exitY=1;exitDx=0;exitDy=0;strokeWidth=1;" parent="WIyWlLk6GJQsqaUBKTNV-1" source="IpHw89K4-DccxEpRs5BE-0" edge="1">
          <mxGeometry width="50" height="50" relative="1" as="geometry">
            <mxPoint x="368.25" y="350" as="sourcePoint" />
            <mxPoint x="78.25" y="400" as="targetPoint" />
          </mxGeometry>
        </mxCell>
        <mxCell id="IpHw89K4-DccxEpRs5BE-9" style="edgeStyle=orthogonalEdgeStyle;rounded=0;orthogonalLoop=1;jettySize=auto;html=1;exitX=0.5;exitY=1;exitDx=0;exitDy=0;strokeWidth=1;" parent="WIyWlLk6GJQsqaUBKTNV-1" source="IpHw89K4-DccxEpRs5BE-8" edge="1">
          <mxGeometry relative="1" as="geometry">
            <mxPoint x="78.25" y="540" as="targetPoint" />
          </mxGeometry>
        </mxCell>
        <mxCell id="LwJV0--_XXvyynLvVtDL-0" style="edgeStyle=orthogonalEdgeStyle;rounded=0;orthogonalLoop=1;jettySize=auto;html=1;exitX=1;exitY=0.5;exitDx=0;exitDy=0;entryX=0;entryY=0.5;entryDx=0;entryDy=0;strokeWidth=1;" parent="WIyWlLk6GJQsqaUBKTNV-1" source="IpHw89K4-DccxEpRs5BE-8" target="IpHw89K4-DccxEpRs5BE-23" edge="1">
          <mxGeometry relative="1" as="geometry" />
        </mxCell>
        <mxCell id="IpHw89K4-DccxEpRs5BE-8" value="&lt;b&gt;Manage&lt;/b&gt;" style="rhombus;whiteSpace=wrap;html=1;strokeWidth=1;" parent="WIyWlLk6GJQsqaUBKTNV-1" vertex="1">
          <mxGeometry x="38.25" y="400" width="80" height="80" as="geometry" />
        </mxCell>
        <mxCell id="IpHw89K4-DccxEpRs5BE-10" value="&lt;b&gt;Category_Master&lt;/b&gt;" style="rounded=0;whiteSpace=wrap;html=1;strokeWidth=1;" parent="WIyWlLk6GJQsqaUBKTNV-1" vertex="1">
          <mxGeometry x="18.25" y="540" width="120" height="40" as="geometry" />
        </mxCell>
        <mxCell id="IpHw89K4-DccxEpRs5BE-11" value="&lt;u&gt;cat_id&lt;/u&gt;" style="ellipse;whiteSpace=wrap;html=1;strokeWidth=1;" parent="WIyWlLk6GJQsqaUBKTNV-1" vertex="1">
          <mxGeometry x="8.25" y="480" width="61.75" height="30" as="geometry" />
        </mxCell>
        <mxCell id="IpHw89K4-DccxEpRs5BE-12" value="cat_type" style="ellipse;whiteSpace=wrap;html=1;strokeWidth=1;" parent="WIyWlLk6GJQsqaUBKTNV-1" vertex="1">
          <mxGeometry x="98.25" y="480" width="80" height="30" as="geometry" />
        </mxCell>
        <mxCell id="IpHw89K4-DccxEpRs5BE-13" value="cat_name" style="ellipse;whiteSpace=wrap;html=1;strokeWidth=1;" parent="WIyWlLk6GJQsqaUBKTNV-1" vertex="1">
          <mxGeometry x="10" y="600" width="80" height="30" as="geometry" />
        </mxCell>
        <mxCell id="IpHw89K4-DccxEpRs5BE-14" value="pro_id" style="ellipse;whiteSpace=wrap;html=1;strokeWidth=1;" parent="WIyWlLk6GJQsqaUBKTNV-1" vertex="1">
          <mxGeometry x="118.25" y="600" width="70" height="30" as="geometry" />
        </mxCell>
        <mxCell id="IpHw89K4-DccxEpRs5BE-15" value="" style="endArrow=none;html=1;rounded=0;exitX=0.75;exitY=0;exitDx=0;exitDy=0;entryX=0.5;entryY=1;entryDx=0;entryDy=0;strokeWidth=1;" parent="WIyWlLk6GJQsqaUBKTNV-1" source="IpHw89K4-DccxEpRs5BE-10" target="IpHw89K4-DccxEpRs5BE-12" edge="1">
          <mxGeometry width="50" height="50" relative="1" as="geometry">
            <mxPoint x="368.25" y="450" as="sourcePoint" />
            <mxPoint x="418.25" y="400" as="targetPoint" />
          </mxGeometry>
        </mxCell>
        <mxCell id="IpHw89K4-DccxEpRs5BE-16" value="" style="endArrow=none;html=1;rounded=0;exitX=1;exitY=1;exitDx=0;exitDy=0;entryX=0.5;entryY=0;entryDx=0;entryDy=0;strokeWidth=1;" parent="WIyWlLk6GJQsqaUBKTNV-1" source="IpHw89K4-DccxEpRs5BE-10" target="IpHw89K4-DccxEpRs5BE-14" edge="1">
          <mxGeometry width="50" height="50" relative="1" as="geometry">
            <mxPoint x="368.25" y="450" as="sourcePoint" />
            <mxPoint x="418.25" y="400" as="targetPoint" />
          </mxGeometry>
        </mxCell>
        <mxCell id="IpHw89K4-DccxEpRs5BE-17" value="" style="endArrow=none;html=1;rounded=0;exitX=0.5;exitY=0;exitDx=0;exitDy=0;strokeWidth=1;" parent="WIyWlLk6GJQsqaUBKTNV-1" target="IpHw89K4-DccxEpRs5BE-10" edge="1">
          <mxGeometry width="50" height="50" relative="1" as="geometry">
            <mxPoint x="28.25" y="600" as="sourcePoint" />
            <mxPoint x="418.25" y="400" as="targetPoint" />
          </mxGeometry>
        </mxCell>
        <mxCell id="IpHw89K4-DccxEpRs5BE-18" value="" style="endArrow=none;html=1;rounded=0;exitX=0.25;exitY=0;exitDx=0;exitDy=0;entryX=0.5;entryY=1;entryDx=0;entryDy=0;strokeWidth=1;" parent="WIyWlLk6GJQsqaUBKTNV-1" source="IpHw89K4-DccxEpRs5BE-10" edge="1">
          <mxGeometry width="50" height="50" relative="1" as="geometry">
            <mxPoint x="338.25" y="450" as="sourcePoint" />
            <mxPoint x="28.25" y="510" as="targetPoint" />
          </mxGeometry>
        </mxCell>
        <mxCell id="ANaGKPGg69r5ijw3QTV_-6" style="edgeStyle=orthogonalEdgeStyle;rounded=0;orthogonalLoop=1;jettySize=auto;html=1;exitX=1;exitY=0.5;exitDx=0;exitDy=0;entryX=0;entryY=0.5;entryDx=0;entryDy=0;strokeWidth=1;" parent="WIyWlLk6GJQsqaUBKTNV-1" source="IpHw89K4-DccxEpRs5BE-23" target="ANaGKPGg69r5ijw3QTV_-3" edge="1">
          <mxGeometry relative="1" as="geometry" />
        </mxCell>
        <mxCell id="IpHw89K4-DccxEpRs5BE-23" value="&lt;b&gt;Product_Master&lt;/b&gt;" style="rounded=0;whiteSpace=wrap;html=1;strokeWidth=1;" parent="WIyWlLk6GJQsqaUBKTNV-1" vertex="1">
          <mxGeometry x="218.25" y="420" width="120" height="40" as="geometry" />
        </mxCell>
        <mxCell id="IpHw89K4-DccxEpRs5BE-24" value="&lt;u&gt;pro_id&lt;/u&gt;" style="ellipse;whiteSpace=wrap;html=1;strokeWidth=1;" parent="WIyWlLk6GJQsqaUBKTNV-1" vertex="1">
          <mxGeometry x="133.25" y="386" width="70" height="30" as="geometry" />
        </mxCell>
        <mxCell id="IpHw89K4-DccxEpRs5BE-25" value="pro_type" style="ellipse;whiteSpace=wrap;html=1;strokeWidth=1;" parent="WIyWlLk6GJQsqaUBKTNV-1" vertex="1">
          <mxGeometry x="158.25" y="350" width="70" height="30" as="geometry" />
        </mxCell>
        <mxCell id="IpHw89K4-DccxEpRs5BE-26" value="pro_name" style="ellipse;whiteSpace=wrap;html=1;strokeWidth=1;" parent="WIyWlLk6GJQsqaUBKTNV-1" vertex="1">
          <mxGeometry x="218.25" y="330" width="70" height="30" as="geometry" />
        </mxCell>
        <mxCell id="IpHw89K4-DccxEpRs5BE-27" value="pro_detail" style="ellipse;whiteSpace=wrap;html=1;strokeWidth=1;" parent="WIyWlLk6GJQsqaUBKTNV-1" vertex="1">
          <mxGeometry x="308.25" y="350" width="70" height="30" as="geometry" />
        </mxCell>
        <mxCell id="IpHw89K4-DccxEpRs5BE-28" value="pro_quanity" style="ellipse;whiteSpace=wrap;html=1;strokeWidth=1;" parent="WIyWlLk6GJQsqaUBKTNV-1" vertex="1">
          <mxGeometry x="352.25" y="380" width="80" height="30" as="geometry" />
        </mxCell>
        <mxCell id="IpHw89K4-DccxEpRs5BE-29" value="pro_price" style="ellipse;whiteSpace=wrap;html=1;strokeWidth=1;" parent="WIyWlLk6GJQsqaUBKTNV-1" vertex="1">
          <mxGeometry x="198.25" y="525" width="70" height="30" as="geometry" />
        </mxCell>
        <mxCell id="IpHw89K4-DccxEpRs5BE-30" value="pro_mfg_date" style="ellipse;whiteSpace=wrap;html=1;strokeWidth=1;" parent="WIyWlLk6GJQsqaUBKTNV-1" vertex="1">
          <mxGeometry x="338.25" y="470" width="90" height="30" as="geometry" />
        </mxCell>
        <mxCell id="IpHw89K4-DccxEpRs5BE-31" value="pro_category" style="ellipse;whiteSpace=wrap;html=1;strokeWidth=1;" parent="WIyWlLk6GJQsqaUBKTNV-1" vertex="1">
          <mxGeometry x="271.75" y="540" width="84" height="30" as="geometry" />
        </mxCell>
        <mxCell id="IpHw89K4-DccxEpRs5BE-32" value="cus_id" style="ellipse;whiteSpace=wrap;html=1;strokeWidth=1;" parent="WIyWlLk6GJQsqaUBKTNV-1" vertex="1">
          <mxGeometry x="188.25" y="480" width="60" height="30" as="geometry" />
        </mxCell>
        <mxCell id="IpHw89K4-DccxEpRs5BE-33" value="cat_id" style="ellipse;whiteSpace=wrap;html=1;strokeWidth=1;" parent="WIyWlLk6GJQsqaUBKTNV-1" vertex="1">
          <mxGeometry x="322.25" y="510" width="70" height="30" as="geometry" />
        </mxCell>
        <mxCell id="IpHw89K4-DccxEpRs5BE-34" value="" style="endArrow=none;html=1;rounded=0;exitX=0.5;exitY=0;exitDx=0;exitDy=0;entryX=0.25;entryY=1;entryDx=0;entryDy=0;strokeWidth=1;" parent="WIyWlLk6GJQsqaUBKTNV-1" source="IpHw89K4-DccxEpRs5BE-32" target="IpHw89K4-DccxEpRs5BE-23" edge="1">
          <mxGeometry width="50" height="50" relative="1" as="geometry">
            <mxPoint x="338.25" y="450" as="sourcePoint" />
            <mxPoint x="388.25" y="400" as="targetPoint" />
          </mxGeometry>
        </mxCell>
        <mxCell id="IpHw89K4-DccxEpRs5BE-35" value="" style="endArrow=none;html=1;rounded=0;exitX=0.68;exitY=0.013;exitDx=0;exitDy=0;exitPerimeter=0;strokeWidth=1;" parent="WIyWlLk6GJQsqaUBKTNV-1" source="IpHw89K4-DccxEpRs5BE-29" edge="1">
          <mxGeometry width="50" height="50" relative="1" as="geometry">
            <mxPoint x="338.25" y="450" as="sourcePoint" />
            <mxPoint x="278.25" y="460" as="targetPoint" />
          </mxGeometry>
        </mxCell>
        <mxCell id="IpHw89K4-DccxEpRs5BE-36" value="" style="endArrow=none;html=1;rounded=0;exitX=0;exitY=0;exitDx=0;exitDy=0;entryX=0.63;entryY=1.055;entryDx=0;entryDy=0;entryPerimeter=0;strokeWidth=1;" parent="WIyWlLk6GJQsqaUBKTNV-1" source="IpHw89K4-DccxEpRs5BE-31" target="IpHw89K4-DccxEpRs5BE-23" edge="1">
          <mxGeometry width="50" height="50" relative="1" as="geometry">
            <mxPoint x="338.25" y="450" as="sourcePoint" />
            <mxPoint x="388.25" y="400" as="targetPoint" />
          </mxGeometry>
        </mxCell>
        <mxCell id="IpHw89K4-DccxEpRs5BE-37" value="" style="endArrow=none;html=1;rounded=0;exitX=0.034;exitY=0.28;exitDx=0;exitDy=0;exitPerimeter=0;entryX=0.75;entryY=1;entryDx=0;entryDy=0;strokeWidth=1;" parent="WIyWlLk6GJQsqaUBKTNV-1" source="IpHw89K4-DccxEpRs5BE-33" target="IpHw89K4-DccxEpRs5BE-23" edge="1">
          <mxGeometry width="50" height="50" relative="1" as="geometry">
            <mxPoint x="338.25" y="450" as="sourcePoint" />
            <mxPoint x="388.25" y="400" as="targetPoint" />
          </mxGeometry>
        </mxCell>
        <mxCell id="IpHw89K4-DccxEpRs5BE-38" value="" style="endArrow=none;html=1;rounded=0;exitX=0;exitY=0;exitDx=0;exitDy=0;entryX=1;entryY=1;entryDx=0;entryDy=0;strokeWidth=1;" parent="WIyWlLk6GJQsqaUBKTNV-1" source="IpHw89K4-DccxEpRs5BE-30" target="IpHw89K4-DccxEpRs5BE-23" edge="1">
          <mxGeometry width="50" height="50" relative="1" as="geometry">
            <mxPoint x="338.25" y="450" as="sourcePoint" />
            <mxPoint x="388.25" y="400" as="targetPoint" />
          </mxGeometry>
        </mxCell>
        <mxCell id="IpHw89K4-DccxEpRs5BE-39" value="" style="endArrow=none;html=1;rounded=0;exitX=1;exitY=0.5;exitDx=0;exitDy=0;entryX=0;entryY=0.25;entryDx=0;entryDy=0;strokeWidth=1;" parent="WIyWlLk6GJQsqaUBKTNV-1" source="IpHw89K4-DccxEpRs5BE-24" target="IpHw89K4-DccxEpRs5BE-23" edge="1">
          <mxGeometry width="50" height="50" relative="1" as="geometry">
            <mxPoint x="338.25" y="450" as="sourcePoint" />
            <mxPoint x="388.25" y="400" as="targetPoint" />
          </mxGeometry>
        </mxCell>
        <mxCell id="IpHw89K4-DccxEpRs5BE-40" value="" style="endArrow=none;html=1;rounded=0;exitX=0.25;exitY=0;exitDx=0;exitDy=0;entryX=1;entryY=1;entryDx=0;entryDy=0;strokeWidth=1;" parent="WIyWlLk6GJQsqaUBKTNV-1" source="IpHw89K4-DccxEpRs5BE-23" target="IpHw89K4-DccxEpRs5BE-25" edge="1">
          <mxGeometry width="50" height="50" relative="1" as="geometry">
            <mxPoint x="338.25" y="450" as="sourcePoint" />
            <mxPoint x="388.25" y="400" as="targetPoint" />
          </mxGeometry>
        </mxCell>
        <mxCell id="IpHw89K4-DccxEpRs5BE-41" value="" style="endArrow=none;html=1;rounded=0;exitX=0.5;exitY=1;exitDx=0;exitDy=0;entryX=0.5;entryY=0;entryDx=0;entryDy=0;strokeWidth=1;" parent="WIyWlLk6GJQsqaUBKTNV-1" source="IpHw89K4-DccxEpRs5BE-26" target="IpHw89K4-DccxEpRs5BE-23" edge="1">
          <mxGeometry width="50" height="50" relative="1" as="geometry">
            <mxPoint x="338.25" y="450" as="sourcePoint" />
            <mxPoint x="388.25" y="400" as="targetPoint" />
          </mxGeometry>
        </mxCell>
        <mxCell id="IpHw89K4-DccxEpRs5BE-42" value="" style="endArrow=none;html=1;rounded=0;exitX=0.75;exitY=0;exitDx=0;exitDy=0;entryX=0;entryY=1;entryDx=0;entryDy=0;strokeWidth=1;" parent="WIyWlLk6GJQsqaUBKTNV-1" source="IpHw89K4-DccxEpRs5BE-23" target="IpHw89K4-DccxEpRs5BE-27" edge="1">
          <mxGeometry width="50" height="50" relative="1" as="geometry">
            <mxPoint x="338.25" y="450" as="sourcePoint" />
            <mxPoint x="388.25" y="400" as="targetPoint" />
          </mxGeometry>
        </mxCell>
        <mxCell id="IpHw89K4-DccxEpRs5BE-43" value="" style="endArrow=none;html=1;rounded=0;exitX=1;exitY=0;exitDx=0;exitDy=0;entryX=0;entryY=1;entryDx=0;entryDy=0;strokeWidth=1;" parent="WIyWlLk6GJQsqaUBKTNV-1" source="IpHw89K4-DccxEpRs5BE-23" target="IpHw89K4-DccxEpRs5BE-28" edge="1">
          <mxGeometry width="50" height="50" relative="1" as="geometry">
            <mxPoint x="338.25" y="450" as="sourcePoint" />
            <mxPoint x="388.25" y="400" as="targetPoint" />
          </mxGeometry>
        </mxCell>
        <mxCell id="IpHw89K4-DccxEpRs5BE-45" value="&lt;b&gt;Customer_Master&lt;/b&gt;" style="rounded=0;whiteSpace=wrap;html=1;strokeWidth=1;" parent="WIyWlLk6GJQsqaUBKTNV-1" vertex="1">
          <mxGeometry x="468.25" y="245" width="120" height="40" as="geometry" />
        </mxCell>
        <mxCell id="IpHw89K4-DccxEpRs5BE-50" style="edgeStyle=orthogonalEdgeStyle;rounded=0;orthogonalLoop=1;jettySize=auto;html=1;exitX=0.5;exitY=1;exitDx=0;exitDy=0;entryX=0.663;entryY=-0.02;entryDx=0;entryDy=0;entryPerimeter=0;strokeWidth=1;" parent="WIyWlLk6GJQsqaUBKTNV-1" source="IpHw89K4-DccxEpRs5BE-47" target="IpHw89K4-DccxEpRs5BE-23" edge="1">
          <mxGeometry relative="1" as="geometry" />
        </mxCell>
        <mxCell id="LwJV0--_XXvyynLvVtDL-1" style="edgeStyle=orthogonalEdgeStyle;rounded=0;orthogonalLoop=1;jettySize=auto;html=1;exitX=1;exitY=0.5;exitDx=0;exitDy=0;strokeWidth=1;" parent="WIyWlLk6GJQsqaUBKTNV-1" source="IpHw89K4-DccxEpRs5BE-47" target="IpHw89K4-DccxEpRs5BE-45" edge="1">
          <mxGeometry relative="1" as="geometry" />
        </mxCell>
        <mxCell id="IpHw89K4-DccxEpRs5BE-47" value="&lt;b&gt;Buy&lt;/b&gt;" style="rhombus;whiteSpace=wrap;html=1;strokeWidth=1;" parent="WIyWlLk6GJQsqaUBKTNV-1" vertex="1">
          <mxGeometry x="258.25" y="225" width="80" height="80" as="geometry" />
        </mxCell>
        <mxCell id="IpHw89K4-DccxEpRs5BE-51" value="&lt;u&gt;cus_id&lt;/u&gt;" style="ellipse;whiteSpace=wrap;html=1;strokeWidth=1;" parent="WIyWlLk6GJQsqaUBKTNV-1" vertex="1">
          <mxGeometry x="355.75" y="225" width="73" height="30" as="geometry" />
        </mxCell>
        <mxCell id="IpHw89K4-DccxEpRs5BE-52" value="cus_first_name" style="ellipse;whiteSpace=wrap;html=1;strokeWidth=1;" parent="WIyWlLk6GJQsqaUBKTNV-1" vertex="1">
          <mxGeometry x="398.25" y="320" width="100" height="30" as="geometry" />
        </mxCell>
        <mxCell id="IpHw89K4-DccxEpRs5BE-53" value="cus_last_name" style="ellipse;whiteSpace=wrap;html=1;strokeWidth=1;" parent="WIyWlLk6GJQsqaUBKTNV-1" vertex="1">
          <mxGeometry x="558.25" y="330" width="100" height="30" as="geometry" />
        </mxCell>
        <mxCell id="IpHw89K4-DccxEpRs5BE-54" value="cus_email_id" style="ellipse;whiteSpace=wrap;html=1;strokeWidth=1;" parent="WIyWlLk6GJQsqaUBKTNV-1" vertex="1">
          <mxGeometry x="378.25" y="190" width="100" height="30" as="geometry" />
        </mxCell>
        <mxCell id="IpHw89K4-DccxEpRs5BE-55" value="cus_contact_no" style="ellipse;whiteSpace=wrap;html=1;strokeWidth=1;" parent="WIyWlLk6GJQsqaUBKTNV-1" vertex="1">
          <mxGeometry x="608.25" y="210" width="100" height="30" as="geometry" />
        </mxCell>
        <mxCell id="IpHw89K4-DccxEpRs5BE-56" value="cus_city" style="ellipse;whiteSpace=wrap;html=1;strokeWidth=1;" parent="WIyWlLk6GJQsqaUBKTNV-1" vertex="1">
          <mxGeometry x="518.25" y="150" width="70" height="30" as="geometry" />
        </mxCell>
        <mxCell id="IpHw89K4-DccxEpRs5BE-58" value="cus_country" style="ellipse;whiteSpace=wrap;html=1;strokeWidth=1;" parent="WIyWlLk6GJQsqaUBKTNV-1" vertex="1">
          <mxGeometry x="618.25" y="290" width="90" height="30" as="geometry" />
        </mxCell>
        <mxCell id="IpHw89K4-DccxEpRs5BE-59" value="cus_state" style="ellipse;whiteSpace=wrap;html=1;strokeWidth=1;" parent="WIyWlLk6GJQsqaUBKTNV-1" vertex="1">
          <mxGeometry x="588.25" y="170" width="80" height="30" as="geometry" />
        </mxCell>
        <mxCell id="IpHw89K4-DccxEpRs5BE-61" value="" style="endArrow=none;html=1;rounded=0;entryX=0;entryY=1;entryDx=0;entryDy=0;exitX=0.5;exitY=0;exitDx=0;exitDy=0;strokeWidth=1;" parent="WIyWlLk6GJQsqaUBKTNV-1" source="IpHw89K4-DccxEpRs5BE-52" target="IpHw89K4-DccxEpRs5BE-45" edge="1">
          <mxGeometry width="50" height="50" relative="1" as="geometry">
            <mxPoint x="338.25" y="450" as="sourcePoint" />
            <mxPoint x="388.25" y="400" as="targetPoint" />
          </mxGeometry>
        </mxCell>
        <mxCell id="IpHw89K4-DccxEpRs5BE-62" value="" style="endArrow=none;html=1;rounded=0;entryX=0.5;entryY=0;entryDx=0;entryDy=0;exitX=0.75;exitY=1;exitDx=0;exitDy=0;strokeWidth=1;" parent="WIyWlLk6GJQsqaUBKTNV-1" source="IpHw89K4-DccxEpRs5BE-45" target="IpHw89K4-DccxEpRs5BE-53" edge="1">
          <mxGeometry width="50" height="50" relative="1" as="geometry">
            <mxPoint x="338.25" y="450" as="sourcePoint" />
            <mxPoint x="388.25" y="400" as="targetPoint" />
          </mxGeometry>
        </mxCell>
        <mxCell id="IpHw89K4-DccxEpRs5BE-63" value="" style="endArrow=none;html=1;rounded=0;entryX=0;entryY=0;entryDx=0;entryDy=0;exitX=1;exitY=1;exitDx=0;exitDy=0;strokeWidth=1;" parent="WIyWlLk6GJQsqaUBKTNV-1" source="IpHw89K4-DccxEpRs5BE-45" target="IpHw89K4-DccxEpRs5BE-58" edge="1">
          <mxGeometry width="50" height="50" relative="1" as="geometry">
            <mxPoint x="338.25" y="450" as="sourcePoint" />
            <mxPoint x="388.25" y="400" as="targetPoint" />
          </mxGeometry>
        </mxCell>
        <mxCell id="IpHw89K4-DccxEpRs5BE-64" value="" style="endArrow=none;html=1;rounded=0;entryX=0;entryY=0.25;entryDx=0;entryDy=0;exitX=1;exitY=0.5;exitDx=0;exitDy=0;strokeWidth=1;" parent="WIyWlLk6GJQsqaUBKTNV-1" source="IpHw89K4-DccxEpRs5BE-51" target="IpHw89K4-DccxEpRs5BE-45" edge="1">
          <mxGeometry width="50" height="50" relative="1" as="geometry">
            <mxPoint x="338.25" y="450" as="sourcePoint" />
            <mxPoint x="388.25" y="400" as="targetPoint" />
          </mxGeometry>
        </mxCell>
        <mxCell id="IpHw89K4-DccxEpRs5BE-65" value="" style="endArrow=none;html=1;rounded=0;entryX=0.25;entryY=0;entryDx=0;entryDy=0;exitX=1;exitY=1;exitDx=0;exitDy=0;strokeWidth=1;" parent="WIyWlLk6GJQsqaUBKTNV-1" source="IpHw89K4-DccxEpRs5BE-54" target="IpHw89K4-DccxEpRs5BE-45" edge="1">
          <mxGeometry width="50" height="50" relative="1" as="geometry">
            <mxPoint x="338.25" y="450" as="sourcePoint" />
            <mxPoint x="388.25" y="400" as="targetPoint" />
          </mxGeometry>
        </mxCell>
        <mxCell id="IpHw89K4-DccxEpRs5BE-66" value="" style="endArrow=none;html=1;rounded=0;entryX=0.5;entryY=1;entryDx=0;entryDy=0;exitX=0.647;exitY=0.01;exitDx=0;exitDy=0;exitPerimeter=0;strokeWidth=1;" parent="WIyWlLk6GJQsqaUBKTNV-1" source="IpHw89K4-DccxEpRs5BE-45" target="IpHw89K4-DccxEpRs5BE-56" edge="1">
          <mxGeometry width="50" height="50" relative="1" as="geometry">
            <mxPoint x="338.25" y="450" as="sourcePoint" />
            <mxPoint x="388.25" y="400" as="targetPoint" />
          </mxGeometry>
        </mxCell>
        <mxCell id="IpHw89K4-DccxEpRs5BE-67" value="" style="endArrow=none;html=1;rounded=0;entryX=0;entryY=1;entryDx=0;entryDy=0;exitX=0.75;exitY=0;exitDx=0;exitDy=0;strokeWidth=1;" parent="WIyWlLk6GJQsqaUBKTNV-1" source="IpHw89K4-DccxEpRs5BE-45" target="IpHw89K4-DccxEpRs5BE-59" edge="1">
          <mxGeometry width="50" height="50" relative="1" as="geometry">
            <mxPoint x="338.25" y="450" as="sourcePoint" />
            <mxPoint x="388.25" y="400" as="targetPoint" />
          </mxGeometry>
        </mxCell>
        <mxCell id="IpHw89K4-DccxEpRs5BE-68" value="" style="endArrow=none;html=1;rounded=0;entryX=0;entryY=1;entryDx=0;entryDy=0;exitX=1;exitY=0;exitDx=0;exitDy=0;strokeWidth=1;" parent="WIyWlLk6GJQsqaUBKTNV-1" source="IpHw89K4-DccxEpRs5BE-45" target="IpHw89K4-DccxEpRs5BE-55" edge="1">
          <mxGeometry width="50" height="50" relative="1" as="geometry">
            <mxPoint x="338.25" y="450" as="sourcePoint" />
            <mxPoint x="388.25" y="400" as="targetPoint" />
          </mxGeometry>
        </mxCell>
        <mxCell id="IpHw89K4-DccxEpRs5BE-69" value="&lt;b&gt;Order_Master&lt;/b&gt;" style="rounded=0;whiteSpace=wrap;html=1;strokeWidth=1;" parent="WIyWlLk6GJQsqaUBKTNV-1" vertex="1">
          <mxGeometry x="468.25" y="525" width="120" height="40" as="geometry" />
        </mxCell>
        <mxCell id="LwJV0--_XXvyynLvVtDL-2" style="edgeStyle=orthogonalEdgeStyle;rounded=0;orthogonalLoop=1;jettySize=auto;html=1;exitX=0;exitY=0.5;exitDx=0;exitDy=0;entryX=1;entryY=0.5;entryDx=0;entryDy=0;strokeWidth=1;" parent="WIyWlLk6GJQsqaUBKTNV-1" source="IpHw89K4-DccxEpRs5BE-72" target="IpHw89K4-DccxEpRs5BE-76" edge="1">
          <mxGeometry relative="1" as="geometry" />
        </mxCell>
        <mxCell id="IpHw89K4-DccxEpRs5BE-72" value="&lt;b&gt;give&lt;br&gt;reviews&lt;/b&gt;" style="rhombus;whiteSpace=wrap;html=1;strokeWidth=1;" parent="WIyWlLk6GJQsqaUBKTNV-1" vertex="1">
          <mxGeometry x="468.25" y="60" width="80" height="80" as="geometry" />
        </mxCell>
        <mxCell id="IpHw89K4-DccxEpRs5BE-76" value="&lt;b&gt;Review_Master&lt;/b&gt;" style="rounded=0;whiteSpace=wrap;html=1;strokeWidth=1;" parent="WIyWlLk6GJQsqaUBKTNV-1" vertex="1">
          <mxGeometry x="238.25" y="80" width="120" height="40" as="geometry" />
        </mxCell>
        <mxCell id="IpHw89K4-DccxEpRs5BE-77" value="&lt;u&gt;rev_id&lt;/u&gt;" style="ellipse;whiteSpace=wrap;html=1;strokeWidth=1;" parent="WIyWlLk6GJQsqaUBKTNV-1" vertex="1">
          <mxGeometry x="378.25" y="50" width="80" height="30" as="geometry" />
        </mxCell>
        <mxCell id="IpHw89K4-DccxEpRs5BE-78" value="rev_comment" style="ellipse;whiteSpace=wrap;html=1;strokeWidth=1;" parent="WIyWlLk6GJQsqaUBKTNV-1" vertex="1">
          <mxGeometry x="140.75" y="120" width="90" height="30" as="geometry" />
        </mxCell>
        <mxCell id="IpHw89K4-DccxEpRs5BE-80" value="rev_date" style="ellipse;whiteSpace=wrap;html=1;strokeWidth=1;" parent="WIyWlLk6GJQsqaUBKTNV-1" vertex="1">
          <mxGeometry x="155.75" y="30" width="75" height="30" as="geometry" />
        </mxCell>
        <mxCell id="IpHw89K4-DccxEpRs5BE-81" value="pro_id" style="ellipse;whiteSpace=wrap;html=1;strokeWidth=1;" parent="WIyWlLk6GJQsqaUBKTNV-1" vertex="1">
          <mxGeometry x="243.25" y="10" width="70" height="30" as="geometry" />
        </mxCell>
        <mxCell id="IpHw89K4-DccxEpRs5BE-82" value="cus_id" style="ellipse;whiteSpace=wrap;html=1;strokeWidth=1;" parent="WIyWlLk6GJQsqaUBKTNV-1" vertex="1">
          <mxGeometry x="325.25" y="10" width="73" height="30" as="geometry" />
        </mxCell>
        <mxCell id="IpHw89K4-DccxEpRs5BE-83" value="" style="endArrow=none;html=1;rounded=0;exitX=1;exitY=0.5;exitDx=0;exitDy=0;entryX=0;entryY=1;entryDx=0;entryDy=0;strokeWidth=1;" parent="WIyWlLk6GJQsqaUBKTNV-1" source="IpHw89K4-DccxEpRs5BE-78" target="IpHw89K4-DccxEpRs5BE-76" edge="1">
          <mxGeometry width="50" height="50" relative="1" as="geometry">
            <mxPoint x="338.25" y="250" as="sourcePoint" />
            <mxPoint x="388.25" y="200" as="targetPoint" />
          </mxGeometry>
        </mxCell>
        <mxCell id="IpHw89K4-DccxEpRs5BE-84" value="" style="endArrow=none;html=1;rounded=0;entryX=1;entryY=0;entryDx=0;entryDy=0;exitX=0;exitY=1;exitDx=0;exitDy=0;strokeWidth=1;" parent="WIyWlLk6GJQsqaUBKTNV-1" source="IpHw89K4-DccxEpRs5BE-77" target="IpHw89K4-DccxEpRs5BE-76" edge="1">
          <mxGeometry width="50" height="50" relative="1" as="geometry">
            <mxPoint x="338.25" y="250" as="sourcePoint" />
            <mxPoint x="388.25" y="200" as="targetPoint" />
          </mxGeometry>
        </mxCell>
        <mxCell id="IpHw89K4-DccxEpRs5BE-85" value="" style="endArrow=none;html=1;rounded=0;entryX=0;entryY=1;entryDx=0;entryDy=0;exitX=0.5;exitY=0;exitDx=0;exitDy=0;strokeWidth=1;" parent="WIyWlLk6GJQsqaUBKTNV-1" source="IpHw89K4-DccxEpRs5BE-76" target="IpHw89K4-DccxEpRs5BE-82" edge="1">
          <mxGeometry width="50" height="50" relative="1" as="geometry">
            <mxPoint x="338.25" y="250" as="sourcePoint" />
            <mxPoint x="388.25" y="200" as="targetPoint" />
          </mxGeometry>
        </mxCell>
        <mxCell id="IpHw89K4-DccxEpRs5BE-86" value="" style="endArrow=none;html=1;rounded=0;entryX=1;entryY=1;entryDx=0;entryDy=0;exitX=0;exitY=0;exitDx=0;exitDy=0;strokeWidth=1;" parent="WIyWlLk6GJQsqaUBKTNV-1" source="IpHw89K4-DccxEpRs5BE-76" target="IpHw89K4-DccxEpRs5BE-80" edge="1">
          <mxGeometry width="50" height="50" relative="1" as="geometry">
            <mxPoint x="338.25" y="250" as="sourcePoint" />
            <mxPoint x="388.25" y="200" as="targetPoint" />
          </mxGeometry>
        </mxCell>
        <mxCell id="IpHw89K4-DccxEpRs5BE-87" value="" style="endArrow=none;html=1;rounded=0;entryX=0.5;entryY=1;entryDx=0;entryDy=0;exitX=0.25;exitY=0;exitDx=0;exitDy=0;strokeWidth=1;" parent="WIyWlLk6GJQsqaUBKTNV-1" source="IpHw89K4-DccxEpRs5BE-76" target="IpHw89K4-DccxEpRs5BE-81" edge="1">
          <mxGeometry width="50" height="50" relative="1" as="geometry">
            <mxPoint x="338.25" y="250" as="sourcePoint" />
            <mxPoint x="388.25" y="200" as="targetPoint" />
          </mxGeometry>
        </mxCell>
        <mxCell id="IpHw89K4-DccxEpRs5BE-88" value="" style="endArrow=none;html=1;rounded=0;exitX=0.5;exitY=0;exitDx=0;exitDy=0;entryX=0.5;entryY=1;entryDx=0;entryDy=0;strokeWidth=1;" parent="WIyWlLk6GJQsqaUBKTNV-1" source="IpHw89K4-DccxEpRs5BE-47" target="IpHw89K4-DccxEpRs5BE-76" edge="1">
          <mxGeometry width="50" height="50" relative="1" as="geometry">
            <mxPoint x="338.25" y="350" as="sourcePoint" />
            <mxPoint x="388.25" y="300" as="targetPoint" />
          </mxGeometry>
        </mxCell>
        <mxCell id="ANaGKPGg69r5ijw3QTV_-2" value="" style="endArrow=none;html=1;rounded=0;entryX=0.5;entryY=1;entryDx=0;entryDy=0;exitX=0.5;exitY=0;exitDx=0;exitDy=0;strokeWidth=1;" parent="WIyWlLk6GJQsqaUBKTNV-1" source="ANaGKPGg69r5ijw3QTV_-3" target="IpHw89K4-DccxEpRs5BE-45" edge="1">
          <mxGeometry width="50" height="50" relative="1" as="geometry">
            <mxPoint x="528.25" y="380" as="sourcePoint" />
            <mxPoint x="418.25" y="280" as="targetPoint" />
          </mxGeometry>
        </mxCell>
        <mxCell id="ANaGKPGg69r5ijw3QTV_-4" style="edgeStyle=orthogonalEdgeStyle;rounded=0;orthogonalLoop=1;jettySize=auto;html=1;exitX=0.5;exitY=1;exitDx=0;exitDy=0;entryX=0.5;entryY=0;entryDx=0;entryDy=0;strokeWidth=1;" parent="WIyWlLk6GJQsqaUBKTNV-1" source="ANaGKPGg69r5ijw3QTV_-3" target="IpHw89K4-DccxEpRs5BE-69" edge="1">
          <mxGeometry relative="1" as="geometry" />
        </mxCell>
        <mxCell id="ANaGKPGg69r5ijw3QTV_-3" value="&lt;b&gt;give&lt;br&gt;order&lt;/b&gt;" style="rhombus;whiteSpace=wrap;html=1;strokeWidth=1;" parent="WIyWlLk6GJQsqaUBKTNV-1" vertex="1">
          <mxGeometry x="488.25" y="405" width="80" height="70" as="geometry" />
        </mxCell>
        <mxCell id="ANaGKPGg69r5ijw3QTV_-5" value="pro_id" style="ellipse;whiteSpace=wrap;html=1;strokeWidth=1;" parent="WIyWlLk6GJQsqaUBKTNV-1" vertex="1">
          <mxGeometry x="440" y="475" width="70" height="30" as="geometry" />
        </mxCell>
        <mxCell id="ANaGKPGg69r5ijw3QTV_-7" value="&lt;u&gt;ord_id&lt;/u&gt;" style="ellipse;whiteSpace=wrap;html=1;strokeWidth=1;" parent="WIyWlLk6GJQsqaUBKTNV-1" vertex="1">
          <mxGeometry x="565" y="475" width="70" height="30" as="geometry" />
        </mxCell>
        <mxCell id="ANaGKPGg69r5ijw3QTV_-8" value="ord_status" style="ellipse;whiteSpace=wrap;html=1;strokeWidth=1;" parent="WIyWlLk6GJQsqaUBKTNV-1" vertex="1">
          <mxGeometry x="618.25" y="545" width="70" height="30" as="geometry" />
        </mxCell>
        <mxCell id="ANaGKPGg69r5ijw3QTV_-9" value="ord_date" style="ellipse;whiteSpace=wrap;html=1;strokeWidth=1;" parent="WIyWlLk6GJQsqaUBKTNV-1" vertex="1">
          <mxGeometry x="548.25" y="590" width="70" height="30" as="geometry" />
        </mxCell>
        <mxCell id="ANaGKPGg69r5ijw3QTV_-10" value="" style="endArrow=none;html=1;rounded=0;entryX=0.25;entryY=0;entryDx=0;entryDy=0;exitX=0.5;exitY=1;exitDx=0;exitDy=0;strokeWidth=1;" parent="WIyWlLk6GJQsqaUBKTNV-1" source="ANaGKPGg69r5ijw3QTV_-5" target="IpHw89K4-DccxEpRs5BE-69" edge="1">
          <mxGeometry width="50" height="50" relative="1" as="geometry">
            <mxPoint x="368.25" y="530" as="sourcePoint" />
            <mxPoint x="418.25" y="480" as="targetPoint" />
          </mxGeometry>
        </mxCell>
        <mxCell id="ANaGKPGg69r5ijw3QTV_-11" value="" style="endArrow=none;html=1;rounded=0;entryX=0.75;entryY=0;entryDx=0;entryDy=0;exitX=0.5;exitY=1;exitDx=0;exitDy=0;strokeWidth=1;" parent="WIyWlLk6GJQsqaUBKTNV-1" source="ANaGKPGg69r5ijw3QTV_-7" target="IpHw89K4-DccxEpRs5BE-69" edge="1">
          <mxGeometry width="50" height="50" relative="1" as="geometry">
            <mxPoint x="368.25" y="530" as="sourcePoint" />
            <mxPoint x="418.25" y="480" as="targetPoint" />
          </mxGeometry>
        </mxCell>
        <mxCell id="ANaGKPGg69r5ijw3QTV_-12" value="" style="endArrow=none;html=1;rounded=0;entryX=1;entryY=0.5;entryDx=0;entryDy=0;exitX=0.059;exitY=0.167;exitDx=0;exitDy=0;exitPerimeter=0;strokeWidth=1;" parent="WIyWlLk6GJQsqaUBKTNV-1" source="ANaGKPGg69r5ijw3QTV_-8" target="IpHw89K4-DccxEpRs5BE-69" edge="1">
          <mxGeometry width="50" height="50" relative="1" as="geometry">
            <mxPoint x="368.25" y="530" as="sourcePoint" />
            <mxPoint x="418.25" y="480" as="targetPoint" />
          </mxGeometry>
        </mxCell>
        <mxCell id="ANaGKPGg69r5ijw3QTV_-13" value="" style="endArrow=none;html=1;rounded=0;entryX=0.75;entryY=1;entryDx=0;entryDy=0;exitX=0.5;exitY=0;exitDx=0;exitDy=0;strokeWidth=1;" parent="WIyWlLk6GJQsqaUBKTNV-1" source="ANaGKPGg69r5ijw3QTV_-9" target="IpHw89K4-DccxEpRs5BE-69" edge="1">
          <mxGeometry width="50" height="50" relative="1" as="geometry">
            <mxPoint x="368.25" y="530" as="sourcePoint" />
            <mxPoint x="418.25" y="480" as="targetPoint" />
          </mxGeometry>
        </mxCell>
        <mxCell id="ANaGKPGg69r5ijw3QTV_-14" value="" style="endArrow=none;html=1;rounded=0;entryX=1;entryY=0.5;entryDx=0;entryDy=0;strokeWidth=1;" parent="WIyWlLk6GJQsqaUBKTNV-1" target="IpHw89K4-DccxEpRs5BE-45" edge="1">
          <mxGeometry width="50" height="50" relative="1" as="geometry">
            <mxPoint x="738.25" y="265" as="sourcePoint" />
            <mxPoint x="418.25" y="380" as="targetPoint" />
          </mxGeometry>
        </mxCell>
        <mxCell id="ANaGKPGg69r5ijw3QTV_-15" value="" style="endArrow=none;html=1;rounded=0;strokeWidth=1;" parent="WIyWlLk6GJQsqaUBKTNV-1" edge="1">
          <mxGeometry width="50" height="50" relative="1" as="geometry">
            <mxPoint x="738.25" y="440" as="sourcePoint" />
            <mxPoint x="738.25" y="265" as="targetPoint" />
          </mxGeometry>
        </mxCell>
        <mxCell id="ANaGKPGg69r5ijw3QTV_-17" style="edgeStyle=orthogonalEdgeStyle;rounded=0;orthogonalLoop=1;jettySize=auto;html=1;exitX=0.5;exitY=1;exitDx=0;exitDy=0;strokeWidth=1;" parent="WIyWlLk6GJQsqaUBKTNV-1" source="ANaGKPGg69r5ijw3QTV_-16" edge="1">
          <mxGeometry relative="1" as="geometry">
            <mxPoint x="738.25" y="690" as="targetPoint" />
          </mxGeometry>
        </mxCell>
        <mxCell id="ANaGKPGg69r5ijw3QTV_-16" value="&lt;b&gt;give&lt;br&gt;pay&lt;/b&gt;" style="rhombus;whiteSpace=wrap;html=1;strokeWidth=1;" parent="WIyWlLk6GJQsqaUBKTNV-1" vertex="1">
          <mxGeometry x="698.25" y="440" width="80" height="80" as="geometry" />
        </mxCell>
        <mxCell id="ANaGKPGg69r5ijw3QTV_-19" value="&lt;b&gt;Payment_Master&lt;/b&gt;" style="rounded=0;whiteSpace=wrap;html=1;strokeWidth=1;" parent="WIyWlLk6GJQsqaUBKTNV-1" vertex="1">
          <mxGeometry x="668.25" y="690" width="120" height="40" as="geometry" />
        </mxCell>
        <mxCell id="ANaGKPGg69r5ijw3QTV_-20" value="&lt;u&gt;pay_id&lt;/u&gt;" style="ellipse;whiteSpace=wrap;html=1;strokeWidth=1;" parent="WIyWlLk6GJQsqaUBKTNV-1" vertex="1">
          <mxGeometry x="558.25" y="710" width="70" height="30" as="geometry" />
        </mxCell>
        <mxCell id="ANaGKPGg69r5ijw3QTV_-21" value="pay_amount" style="ellipse;whiteSpace=wrap;html=1;strokeWidth=1;" parent="WIyWlLk6GJQsqaUBKTNV-1" vertex="1">
          <mxGeometry x="568.25" y="668" width="80" height="30" as="geometry" />
        </mxCell>
        <mxCell id="ANaGKPGg69r5ijw3QTV_-22" value="pay_date" style="ellipse;whiteSpace=wrap;html=1;strokeWidth=1;" parent="WIyWlLk6GJQsqaUBKTNV-1" vertex="1">
          <mxGeometry x="723.25" y="810" width="70" height="30" as="geometry" />
        </mxCell>
        <mxCell id="ANaGKPGg69r5ijw3QTV_-23" value="pay_type" style="ellipse;whiteSpace=wrap;html=1;strokeWidth=1;" parent="WIyWlLk6GJQsqaUBKTNV-1" vertex="1">
          <mxGeometry x="568.25" y="751.5" width="70" height="30" as="geometry" />
        </mxCell>
        <mxCell id="ANaGKPGg69r5ijw3QTV_-24" value="pay_transaction_no" style="ellipse;whiteSpace=wrap;html=1;strokeWidth=1;" parent="WIyWlLk6GJQsqaUBKTNV-1" vertex="1">
          <mxGeometry x="593.25" y="790" width="130" height="30" as="geometry" />
        </mxCell>
        <mxCell id="ANaGKPGg69r5ijw3QTV_-25" value="cus_id" style="ellipse;whiteSpace=wrap;html=1;strokeWidth=1;" parent="WIyWlLk6GJQsqaUBKTNV-1" vertex="1">
          <mxGeometry x="648.25" y="640" width="70" height="30" as="geometry" />
        </mxCell>
        <mxCell id="ANaGKPGg69r5ijw3QTV_-26" value="" style="endArrow=none;html=1;rounded=0;entryX=0.25;entryY=0;entryDx=0;entryDy=0;exitX=0.5;exitY=1;exitDx=0;exitDy=0;strokeWidth=1;" parent="WIyWlLk6GJQsqaUBKTNV-1" source="ANaGKPGg69r5ijw3QTV_-25" target="ANaGKPGg69r5ijw3QTV_-19" edge="1">
          <mxGeometry width="50" height="50" relative="1" as="geometry">
            <mxPoint x="368.25" y="730" as="sourcePoint" />
            <mxPoint x="418.25" y="680" as="targetPoint" />
          </mxGeometry>
        </mxCell>
        <mxCell id="ANaGKPGg69r5ijw3QTV_-27" value="" style="endArrow=none;html=1;rounded=0;entryX=0;entryY=0.25;entryDx=0;entryDy=0;exitX=1;exitY=0.5;exitDx=0;exitDy=0;strokeWidth=1;" parent="WIyWlLk6GJQsqaUBKTNV-1" source="ANaGKPGg69r5ijw3QTV_-21" target="ANaGKPGg69r5ijw3QTV_-19" edge="1">
          <mxGeometry width="50" height="50" relative="1" as="geometry">
            <mxPoint x="368.25" y="730" as="sourcePoint" />
            <mxPoint x="418.25" y="680" as="targetPoint" />
          </mxGeometry>
        </mxCell>
        <mxCell id="ANaGKPGg69r5ijw3QTV_-28" value="" style="endArrow=none;html=1;rounded=0;entryX=0;entryY=0.5;entryDx=0;entryDy=0;exitX=1;exitY=0.5;exitDx=0;exitDy=0;strokeWidth=1;" parent="WIyWlLk6GJQsqaUBKTNV-1" source="ANaGKPGg69r5ijw3QTV_-20" target="ANaGKPGg69r5ijw3QTV_-19" edge="1">
          <mxGeometry width="50" height="50" relative="1" as="geometry">
            <mxPoint x="368.25" y="730" as="sourcePoint" />
            <mxPoint x="418.25" y="680" as="targetPoint" />
          </mxGeometry>
        </mxCell>
        <mxCell id="ANaGKPGg69r5ijw3QTV_-29" value="" style="endArrow=none;html=1;rounded=0;entryX=0;entryY=1;entryDx=0;entryDy=0;exitX=1;exitY=0.5;exitDx=0;exitDy=0;strokeWidth=1;" parent="WIyWlLk6GJQsqaUBKTNV-1" source="ANaGKPGg69r5ijw3QTV_-23" target="ANaGKPGg69r5ijw3QTV_-19" edge="1">
          <mxGeometry width="50" height="50" relative="1" as="geometry">
            <mxPoint x="368.25" y="730" as="sourcePoint" />
            <mxPoint x="418.25" y="680" as="targetPoint" />
          </mxGeometry>
        </mxCell>
        <mxCell id="ANaGKPGg69r5ijw3QTV_-30" value="" style="endArrow=none;html=1;rounded=0;entryX=0.25;entryY=1;entryDx=0;entryDy=0;exitX=0.5;exitY=0;exitDx=0;exitDy=0;strokeWidth=1;" parent="WIyWlLk6GJQsqaUBKTNV-1" source="ANaGKPGg69r5ijw3QTV_-24" target="ANaGKPGg69r5ijw3QTV_-19" edge="1">
          <mxGeometry width="50" height="50" relative="1" as="geometry">
            <mxPoint x="368.25" y="730" as="sourcePoint" />
            <mxPoint x="418.25" y="680" as="targetPoint" />
          </mxGeometry>
        </mxCell>
        <mxCell id="ANaGKPGg69r5ijw3QTV_-31" value="" style="endArrow=none;html=1;rounded=0;entryX=0.5;entryY=1;entryDx=0;entryDy=0;exitX=0.5;exitY=0;exitDx=0;exitDy=0;strokeWidth=1;" parent="WIyWlLk6GJQsqaUBKTNV-1" source="ANaGKPGg69r5ijw3QTV_-22" target="ANaGKPGg69r5ijw3QTV_-19" edge="1">
          <mxGeometry width="50" height="50" relative="1" as="geometry">
            <mxPoint x="368.25" y="730" as="sourcePoint" />
            <mxPoint x="418.25" y="680" as="targetPoint" />
          </mxGeometry>
        </mxCell>
        <mxCell id="ANaGKPGg69r5ijw3QTV_-32" value="&lt;b&gt;Delivery_Master&lt;/b&gt;" style="rounded=0;whiteSpace=wrap;html=1;strokeWidth=1;" parent="WIyWlLk6GJQsqaUBKTNV-1" vertex="1">
          <mxGeometry x="93.25" y="1010" width="120" height="40" as="geometry" />
        </mxCell>
        <mxCell id="ANaGKPGg69r5ijw3QTV_-33" value="del_name" style="ellipse;whiteSpace=wrap;html=1;strokeWidth=1;" parent="WIyWlLk6GJQsqaUBKTNV-1" vertex="1">
          <mxGeometry x="173.25" y="920" width="70" height="30" as="geometry" />
        </mxCell>
        <mxCell id="ANaGKPGg69r5ijw3QTV_-34" value="&lt;u&gt;del_id&lt;/u&gt;" style="ellipse;whiteSpace=wrap;html=1;strokeWidth=1;" parent="WIyWlLk6GJQsqaUBKTNV-1" vertex="1">
          <mxGeometry x="70" y="940" width="70" height="30" as="geometry" />
        </mxCell>
        <mxCell id="ANaGKPGg69r5ijw3QTV_-35" value="del_time" style="ellipse;whiteSpace=wrap;html=1;strokeWidth=1;" parent="WIyWlLk6GJQsqaUBKTNV-1" vertex="1">
          <mxGeometry x="10" y="980" width="70" height="30" as="geometry" />
        </mxCell>
        <mxCell id="ANaGKPGg69r5ijw3QTV_-36" value="del_address" style="ellipse;whiteSpace=wrap;html=1;strokeWidth=1;" parent="WIyWlLk6GJQsqaUBKTNV-1" vertex="1">
          <mxGeometry x="230.75" y="970" width="86.5" height="30" as="geometry" />
        </mxCell>
        <mxCell id="ANaGKPGg69r5ijw3QTV_-37" value="del_date" style="ellipse;whiteSpace=wrap;html=1;strokeWidth=1;" parent="WIyWlLk6GJQsqaUBKTNV-1" vertex="1">
          <mxGeometry x="243.25" y="1060" width="70" height="30" as="geometry" />
        </mxCell>
        <mxCell id="ANaGKPGg69r5ijw3QTV_-38" value="del_detail" style="ellipse;whiteSpace=wrap;html=1;strokeWidth=1;" parent="WIyWlLk6GJQsqaUBKTNV-1" vertex="1">
          <mxGeometry x="128.25" y="1110" width="80" height="30" as="geometry" />
        </mxCell>
        <mxCell id="ANaGKPGg69r5ijw3QTV_-39" value="cus_id" style="ellipse;whiteSpace=wrap;html=1;strokeWidth=1;" parent="WIyWlLk6GJQsqaUBKTNV-1" vertex="1">
          <mxGeometry x="221.75" y="1100" width="70" height="30" as="geometry" />
        </mxCell>
        <mxCell id="ANaGKPGg69r5ijw3QTV_-40" value="pro_id" style="ellipse;whiteSpace=wrap;html=1;strokeWidth=1;" parent="WIyWlLk6GJQsqaUBKTNV-1" vertex="1">
          <mxGeometry x="15" y="1070" width="70" height="30" as="geometry" />
        </mxCell>
        <mxCell id="ANaGKPGg69r5ijw3QTV_-41" value="emp_id" style="ellipse;whiteSpace=wrap;html=1;strokeWidth=1;" parent="WIyWlLk6GJQsqaUBKTNV-1" vertex="1">
          <mxGeometry x="48.25" y="1110" width="70" height="30" as="geometry" />
        </mxCell>
        <mxCell id="ANaGKPGg69r5ijw3QTV_-42" value="&lt;b&gt;Employee_Master&lt;/b&gt;" style="rounded=0;whiteSpace=wrap;html=1;strokeWidth=1;" parent="WIyWlLk6GJQsqaUBKTNV-1" vertex="1">
          <mxGeometry x="648.25" y="1010" width="120" height="40" as="geometry" />
        </mxCell>
        <mxCell id="ANaGKPGg69r5ijw3QTV_-43" value="&lt;u&gt;emp_id&lt;/u&gt;" style="ellipse;whiteSpace=wrap;html=1;strokeWidth=1;" parent="WIyWlLk6GJQsqaUBKTNV-1" vertex="1">
          <mxGeometry x="645.25" y="920" width="63" height="30" as="geometry" />
        </mxCell>
        <mxCell id="ANaGKPGg69r5ijw3QTV_-44" value="emp_first_name" style="ellipse;whiteSpace=wrap;html=1;strokeWidth=1;" parent="WIyWlLk6GJQsqaUBKTNV-1" vertex="1">
          <mxGeometry x="705" y="950" width="106.5" height="30" as="geometry" />
        </mxCell>
        <mxCell id="ANaGKPGg69r5ijw3QTV_-45" value="emp_middle_name" style="ellipse;whiteSpace=wrap;html=1;strokeWidth=1;" parent="WIyWlLk6GJQsqaUBKTNV-1" vertex="1">
          <mxGeometry x="618.25" y="1110" width="120" height="30" as="geometry" />
        </mxCell>
        <mxCell id="ANaGKPGg69r5ijw3QTV_-46" value="emp_last_name" style="ellipse;whiteSpace=wrap;html=1;strokeWidth=1;" parent="WIyWlLk6GJQsqaUBKTNV-1" vertex="1">
          <mxGeometry x="541.75" y="1070" width="96.5" height="30" as="geometry" />
        </mxCell>
        <mxCell id="ANaGKPGg69r5ijw3QTV_-47" value="emp_email_id" style="ellipse;whiteSpace=wrap;html=1;strokeWidth=1;" parent="WIyWlLk6GJQsqaUBKTNV-1" vertex="1">
          <mxGeometry x="502.75" y="990" width="90.5" height="30" as="geometry" />
        </mxCell>
        <mxCell id="ANaGKPGg69r5ijw3QTV_-48" value="emp_contact_no" style="ellipse;whiteSpace=wrap;html=1;strokeWidth=1;" parent="WIyWlLk6GJQsqaUBKTNV-1" vertex="1">
          <mxGeometry x="718.25" y="1080" width="100" height="30" as="geometry" />
        </mxCell>
        <mxCell id="ANaGKPGg69r5ijw3QTV_-49" value="emp_city" style="ellipse;whiteSpace=wrap;html=1;strokeWidth=1;" parent="WIyWlLk6GJQsqaUBKTNV-1" vertex="1">
          <mxGeometry x="565" y="950" width="76.5" height="30" as="geometry" />
        </mxCell>
        <mxCell id="ANaGKPGg69r5ijw3QTV_-50" value="" style="endArrow=none;html=1;rounded=0;entryX=0.25;entryY=1;entryDx=0;entryDy=0;strokeWidth=1;" parent="WIyWlLk6GJQsqaUBKTNV-1" edge="1">
          <mxGeometry width="50" height="50" relative="1" as="geometry">
            <mxPoint x="518.25" y="730" as="sourcePoint" />
            <mxPoint x="518.5" y="565" as="targetPoint" />
          </mxGeometry>
        </mxCell>
        <mxCell id="ANaGKPGg69r5ijw3QTV_-51" value="&lt;b&gt;take&lt;br&gt;bill&lt;/b&gt;" style="rhombus;whiteSpace=wrap;html=1;strokeWidth=1;" parent="WIyWlLk6GJQsqaUBKTNV-1" vertex="1">
          <mxGeometry x="478.25" y="730" width="80" height="80" as="geometry" />
        </mxCell>
        <mxCell id="ANaGKPGg69r5ijw3QTV_-52" value="" style="endArrow=none;html=1;rounded=0;entryX=0;entryY=0.5;entryDx=0;entryDy=0;strokeWidth=1;" parent="WIyWlLk6GJQsqaUBKTNV-1" target="ANaGKPGg69r5ijw3QTV_-42" edge="1">
          <mxGeometry width="50" height="50" relative="1" as="geometry">
            <mxPoint x="470" y="1030" as="sourcePoint" />
            <mxPoint x="440" y="890" as="targetPoint" />
          </mxGeometry>
        </mxCell>
        <mxCell id="ANaGKPGg69r5ijw3QTV_-54" value="" style="endArrow=none;html=1;rounded=0;entryX=0.75;entryY=0;entryDx=0;entryDy=0;exitX=0.5;exitY=1;exitDx=0;exitDy=0;strokeWidth=1;" parent="WIyWlLk6GJQsqaUBKTNV-1" source="ANaGKPGg69r5ijw3QTV_-44" target="ANaGKPGg69r5ijw3QTV_-42" edge="1">
          <mxGeometry width="50" height="50" relative="1" as="geometry">
            <mxPoint x="390" y="940" as="sourcePoint" />
            <mxPoint x="440" y="890" as="targetPoint" />
          </mxGeometry>
        </mxCell>
        <mxCell id="ANaGKPGg69r5ijw3QTV_-55" value="" style="endArrow=none;html=1;rounded=0;entryX=0.5;entryY=0;entryDx=0;entryDy=0;exitX=0.5;exitY=1;exitDx=0;exitDy=0;strokeWidth=1;" parent="WIyWlLk6GJQsqaUBKTNV-1" source="ANaGKPGg69r5ijw3QTV_-43" target="ANaGKPGg69r5ijw3QTV_-42" edge="1">
          <mxGeometry width="50" height="50" relative="1" as="geometry">
            <mxPoint x="390" y="940" as="sourcePoint" />
            <mxPoint x="440" y="890" as="targetPoint" />
          </mxGeometry>
        </mxCell>
        <mxCell id="ANaGKPGg69r5ijw3QTV_-56" value="" style="endArrow=none;html=1;rounded=0;entryX=0.25;entryY=0;entryDx=0;entryDy=0;exitX=1;exitY=1;exitDx=0;exitDy=0;strokeWidth=1;" parent="WIyWlLk6GJQsqaUBKTNV-1" source="ANaGKPGg69r5ijw3QTV_-49" target="ANaGKPGg69r5ijw3QTV_-42" edge="1">
          <mxGeometry width="50" height="50" relative="1" as="geometry">
            <mxPoint x="390" y="940" as="sourcePoint" />
            <mxPoint x="440" y="890" as="targetPoint" />
          </mxGeometry>
        </mxCell>
        <mxCell id="ANaGKPGg69r5ijw3QTV_-57" value="" style="endArrow=none;html=1;rounded=0;entryX=0;entryY=0;entryDx=0;entryDy=0;exitX=1;exitY=0.5;exitDx=0;exitDy=0;strokeWidth=1;" parent="WIyWlLk6GJQsqaUBKTNV-1" source="ANaGKPGg69r5ijw3QTV_-47" target="ANaGKPGg69r5ijw3QTV_-42" edge="1">
          <mxGeometry width="50" height="50" relative="1" as="geometry">
            <mxPoint x="390" y="940" as="sourcePoint" />
            <mxPoint x="440" y="890" as="targetPoint" />
          </mxGeometry>
        </mxCell>
        <mxCell id="ANaGKPGg69r5ijw3QTV_-58" value="" style="endArrow=none;html=1;rounded=0;entryX=0;entryY=1;entryDx=0;entryDy=0;exitX=1;exitY=0;exitDx=0;exitDy=0;strokeWidth=1;" parent="WIyWlLk6GJQsqaUBKTNV-1" source="ANaGKPGg69r5ijw3QTV_-46" target="ANaGKPGg69r5ijw3QTV_-42" edge="1">
          <mxGeometry width="50" height="50" relative="1" as="geometry">
            <mxPoint x="390" y="940" as="sourcePoint" />
            <mxPoint x="440" y="890" as="targetPoint" />
          </mxGeometry>
        </mxCell>
        <mxCell id="ANaGKPGg69r5ijw3QTV_-59" value="" style="endArrow=none;html=1;rounded=0;entryX=0.25;entryY=1;entryDx=0;entryDy=0;exitX=0.5;exitY=0;exitDx=0;exitDy=0;strokeWidth=1;" parent="WIyWlLk6GJQsqaUBKTNV-1" source="ANaGKPGg69r5ijw3QTV_-45" target="ANaGKPGg69r5ijw3QTV_-42" edge="1">
          <mxGeometry width="50" height="50" relative="1" as="geometry">
            <mxPoint x="390" y="940" as="sourcePoint" />
            <mxPoint x="440" y="890" as="targetPoint" />
          </mxGeometry>
        </mxCell>
        <mxCell id="ANaGKPGg69r5ijw3QTV_-60" value="" style="endArrow=none;html=1;rounded=0;entryX=0.5;entryY=0;entryDx=0;entryDy=0;exitX=0.75;exitY=1;exitDx=0;exitDy=0;strokeWidth=1;" parent="WIyWlLk6GJQsqaUBKTNV-1" source="ANaGKPGg69r5ijw3QTV_-42" target="ANaGKPGg69r5ijw3QTV_-48" edge="1">
          <mxGeometry width="50" height="50" relative="1" as="geometry">
            <mxPoint x="390" y="940" as="sourcePoint" />
            <mxPoint x="440" y="890" as="targetPoint" />
          </mxGeometry>
        </mxCell>
        <mxCell id="ANaGKPGg69r5ijw3QTV_-62" style="edgeStyle=orthogonalEdgeStyle;rounded=0;orthogonalLoop=1;jettySize=auto;html=1;exitX=0;exitY=0.5;exitDx=0;exitDy=0;entryX=1;entryY=0.5;entryDx=0;entryDy=0;strokeWidth=1;" parent="WIyWlLk6GJQsqaUBKTNV-1" source="ANaGKPGg69r5ijw3QTV_-61" target="ANaGKPGg69r5ijw3QTV_-32" edge="1">
          <mxGeometry relative="1" as="geometry" />
        </mxCell>
        <mxCell id="ANaGKPGg69r5ijw3QTV_-61" value="&lt;b&gt;has&lt;/b&gt;" style="rhombus;whiteSpace=wrap;html=1;strokeWidth=1;" parent="WIyWlLk6GJQsqaUBKTNV-1" vertex="1">
          <mxGeometry x="388.25" y="990" width="80" height="80" as="geometry" />
        </mxCell>
        <mxCell id="ANaGKPGg69r5ijw3QTV_-79" style="edgeStyle=orthogonalEdgeStyle;rounded=0;orthogonalLoop=1;jettySize=auto;html=1;exitX=0.5;exitY=1;exitDx=0;exitDy=0;entryX=0.5;entryY=0;entryDx=0;entryDy=0;strokeWidth=1;" parent="WIyWlLk6GJQsqaUBKTNV-1" source="ANaGKPGg69r5ijw3QTV_-64" target="ANaGKPGg69r5ijw3QTV_-32" edge="1">
          <mxGeometry relative="1" as="geometry" />
        </mxCell>
        <mxCell id="ANaGKPGg69r5ijw3QTV_-64" value="&lt;b&gt;view&lt;/b&gt;" style="rhombus;whiteSpace=wrap;html=1;strokeWidth=1;" parent="WIyWlLk6GJQsqaUBKTNV-1" vertex="1">
          <mxGeometry x="113.25" y="730" width="80" height="80" as="geometry" />
        </mxCell>
        <mxCell id="ANaGKPGg69r5ijw3QTV_-66" value="" style="endArrow=none;html=1;rounded=0;exitX=0.75;exitY=0;exitDx=0;exitDy=0;entryX=0.5;entryY=1;entryDx=0;entryDy=0;strokeWidth=1;" parent="WIyWlLk6GJQsqaUBKTNV-1" source="ANaGKPGg69r5ijw3QTV_-32" target="ANaGKPGg69r5ijw3QTV_-33" edge="1">
          <mxGeometry width="50" height="50" relative="1" as="geometry">
            <mxPoint x="390" y="940" as="sourcePoint" />
            <mxPoint x="440" y="890" as="targetPoint" />
          </mxGeometry>
        </mxCell>
        <mxCell id="ANaGKPGg69r5ijw3QTV_-67" value="" style="endArrow=none;html=1;rounded=0;entryX=1;entryY=0;entryDx=0;entryDy=0;exitX=0;exitY=1;exitDx=0;exitDy=0;strokeWidth=1;" parent="WIyWlLk6GJQsqaUBKTNV-1" source="ANaGKPGg69r5ijw3QTV_-36" target="ANaGKPGg69r5ijw3QTV_-32" edge="1">
          <mxGeometry width="50" height="50" relative="1" as="geometry">
            <mxPoint x="390" y="940" as="sourcePoint" />
            <mxPoint x="440" y="890" as="targetPoint" />
          </mxGeometry>
        </mxCell>
        <mxCell id="ANaGKPGg69r5ijw3QTV_-68" value="" style="endArrow=none;html=1;rounded=0;exitX=1;exitY=1;exitDx=0;exitDy=0;entryX=0;entryY=0;entryDx=0;entryDy=0;strokeWidth=1;" parent="WIyWlLk6GJQsqaUBKTNV-1" source="ANaGKPGg69r5ijw3QTV_-32" target="ANaGKPGg69r5ijw3QTV_-37" edge="1">
          <mxGeometry width="50" height="50" relative="1" as="geometry">
            <mxPoint x="390" y="940" as="sourcePoint" />
            <mxPoint x="440" y="890" as="targetPoint" />
          </mxGeometry>
        </mxCell>
        <mxCell id="ANaGKPGg69r5ijw3QTV_-69" value="" style="endArrow=none;html=1;rounded=0;exitX=0.75;exitY=1;exitDx=0;exitDy=0;entryX=0;entryY=0;entryDx=0;entryDy=0;strokeWidth=1;" parent="WIyWlLk6GJQsqaUBKTNV-1" source="ANaGKPGg69r5ijw3QTV_-32" target="ANaGKPGg69r5ijw3QTV_-39" edge="1">
          <mxGeometry width="50" height="50" relative="1" as="geometry">
            <mxPoint x="390" y="940" as="sourcePoint" />
            <mxPoint x="440" y="890" as="targetPoint" />
          </mxGeometry>
        </mxCell>
        <mxCell id="ANaGKPGg69r5ijw3QTV_-70" value="" style="endArrow=none;html=1;rounded=0;exitX=0.25;exitY=0;exitDx=0;exitDy=0;entryX=0.5;entryY=1;entryDx=0;entryDy=0;strokeWidth=1;" parent="WIyWlLk6GJQsqaUBKTNV-1" source="ANaGKPGg69r5ijw3QTV_-32" target="ANaGKPGg69r5ijw3QTV_-34" edge="1">
          <mxGeometry width="50" height="50" relative="1" as="geometry">
            <mxPoint x="390" y="940" as="sourcePoint" />
            <mxPoint x="440" y="890" as="targetPoint" />
          </mxGeometry>
        </mxCell>
        <mxCell id="ANaGKPGg69r5ijw3QTV_-71" value="" style="endArrow=none;html=1;rounded=0;exitX=0;exitY=0;exitDx=0;exitDy=0;entryX=1;entryY=0.5;entryDx=0;entryDy=0;strokeWidth=1;" parent="WIyWlLk6GJQsqaUBKTNV-1" source="ANaGKPGg69r5ijw3QTV_-32" target="ANaGKPGg69r5ijw3QTV_-35" edge="1">
          <mxGeometry width="50" height="50" relative="1" as="geometry">
            <mxPoint x="390" y="940" as="sourcePoint" />
            <mxPoint x="440" y="890" as="targetPoint" />
          </mxGeometry>
        </mxCell>
        <mxCell id="ANaGKPGg69r5ijw3QTV_-72" value="" style="endArrow=none;html=1;rounded=0;exitX=0.5;exitY=0;exitDx=0;exitDy=0;entryX=0.5;entryY=1;entryDx=0;entryDy=0;strokeWidth=1;" parent="WIyWlLk6GJQsqaUBKTNV-1" source="ANaGKPGg69r5ijw3QTV_-38" target="ANaGKPGg69r5ijw3QTV_-32" edge="1">
          <mxGeometry width="50" height="50" relative="1" as="geometry">
            <mxPoint x="390" y="940" as="sourcePoint" />
            <mxPoint x="440" y="890" as="targetPoint" />
          </mxGeometry>
        </mxCell>
        <mxCell id="ANaGKPGg69r5ijw3QTV_-73" value="" style="endArrow=none;html=1;rounded=0;exitX=0.25;exitY=1;exitDx=0;exitDy=0;entryX=0.5;entryY=0;entryDx=0;entryDy=0;strokeWidth=1;" parent="WIyWlLk6GJQsqaUBKTNV-1" source="ANaGKPGg69r5ijw3QTV_-32" target="ANaGKPGg69r5ijw3QTV_-41" edge="1">
          <mxGeometry width="50" height="50" relative="1" as="geometry">
            <mxPoint x="390" y="940" as="sourcePoint" />
            <mxPoint x="440" y="890" as="targetPoint" />
          </mxGeometry>
        </mxCell>
        <mxCell id="ANaGKPGg69r5ijw3QTV_-74" value="" style="endArrow=none;html=1;rounded=0;exitX=0.5;exitY=0;exitDx=0;exitDy=0;entryX=0;entryY=0.5;entryDx=0;entryDy=0;strokeWidth=1;" parent="WIyWlLk6GJQsqaUBKTNV-1" source="ANaGKPGg69r5ijw3QTV_-40" target="ANaGKPGg69r5ijw3QTV_-32" edge="1">
          <mxGeometry width="50" height="50" relative="1" as="geometry">
            <mxPoint x="390" y="940" as="sourcePoint" />
            <mxPoint x="440" y="890" as="targetPoint" />
          </mxGeometry>
        </mxCell>
        <mxCell id="ANaGKPGg69r5ijw3QTV_-75" value="&lt;b&gt;Billing_Master&lt;/b&gt;" style="rounded=0;whiteSpace=wrap;html=1;strokeWidth=1;" parent="WIyWlLk6GJQsqaUBKTNV-1" vertex="1">
          <mxGeometry x="278.25" y="750" width="120" height="40" as="geometry" />
        </mxCell>
        <mxCell id="ANaGKPGg69r5ijw3QTV_-81" value="" style="endArrow=none;html=1;rounded=0;entryX=0;entryY=0.5;entryDx=0;entryDy=0;exitX=1;exitY=0.5;exitDx=0;exitDy=0;strokeWidth=1;" parent="WIyWlLk6GJQsqaUBKTNV-1" source="ANaGKPGg69r5ijw3QTV_-64" target="ANaGKPGg69r5ijw3QTV_-75" edge="1">
          <mxGeometry width="50" height="50" relative="1" as="geometry">
            <mxPoint x="390" y="940" as="sourcePoint" />
            <mxPoint x="440" y="890" as="targetPoint" />
          </mxGeometry>
        </mxCell>
        <mxCell id="ANaGKPGg69r5ijw3QTV_-83" value="cus_id" style="ellipse;whiteSpace=wrap;html=1;strokeWidth=1;" parent="WIyWlLk6GJQsqaUBKTNV-1" vertex="1">
          <mxGeometry x="317.25" y="830" width="70" height="30" as="geometry" />
        </mxCell>
        <mxCell id="ANaGKPGg69r5ijw3QTV_-84" value="bill_quanity" style="ellipse;whiteSpace=wrap;html=1;strokeWidth=1;" parent="WIyWlLk6GJQsqaUBKTNV-1" vertex="1">
          <mxGeometry x="211.63" y="820" width="83.25" height="30" as="geometry" />
        </mxCell>
        <mxCell id="ANaGKPGg69r5ijw3QTV_-85" value="bill_amount" style="ellipse;whiteSpace=wrap;html=1;strokeWidth=1;" parent="WIyWlLk6GJQsqaUBKTNV-1" vertex="1">
          <mxGeometry x="180" y="710" width="78.25" height="30" as="geometry" />
        </mxCell>
        <mxCell id="ANaGKPGg69r5ijw3QTV_-86" value="bill_invoice_no" style="ellipse;whiteSpace=wrap;html=1;strokeWidth=1;" parent="WIyWlLk6GJQsqaUBKTNV-1" vertex="1">
          <mxGeometry x="334.88" y="660" width="88.25" height="30" as="geometry" />
        </mxCell>
        <mxCell id="ANaGKPGg69r5ijw3QTV_-87" value="bill_number" style="ellipse;whiteSpace=wrap;html=1;strokeWidth=1;" parent="WIyWlLk6GJQsqaUBKTNV-1" vertex="1">
          <mxGeometry x="247" y="670" width="78.25" height="30" as="geometry" />
        </mxCell>
        <mxCell id="ANaGKPGg69r5ijw3QTV_-88" value="&lt;u&gt;bill_id&lt;/u&gt;" style="ellipse;whiteSpace=wrap;html=1;strokeWidth=1;" parent="WIyWlLk6GJQsqaUBKTNV-1" vertex="1">
          <mxGeometry x="398.25" y="700" width="70" height="30" as="geometry" />
        </mxCell>
        <mxCell id="ANaGKPGg69r5ijw3QTV_-89" value="pro_id" style="ellipse;whiteSpace=wrap;html=1;strokeWidth=1;" parent="WIyWlLk6GJQsqaUBKTNV-1" vertex="1">
          <mxGeometry x="398.25" y="820" width="70" height="30" as="geometry" />
        </mxCell>
        <mxCell id="ANaGKPGg69r5ijw3QTV_-90" value="" style="endArrow=none;html=1;rounded=0;exitX=0.25;exitY=0;exitDx=0;exitDy=0;entryX=0.5;entryY=1;entryDx=0;entryDy=0;strokeWidth=1;" parent="WIyWlLk6GJQsqaUBKTNV-1" source="ANaGKPGg69r5ijw3QTV_-75" target="ANaGKPGg69r5ijw3QTV_-87" edge="1">
          <mxGeometry width="50" height="50" relative="1" as="geometry">
            <mxPoint x="390" y="740" as="sourcePoint" />
            <mxPoint x="440" y="690" as="targetPoint" />
          </mxGeometry>
        </mxCell>
        <mxCell id="ANaGKPGg69r5ijw3QTV_-91" value="" style="endArrow=none;html=1;rounded=0;entryX=0;entryY=1;entryDx=0;entryDy=0;exitX=1;exitY=0;exitDx=0;exitDy=0;strokeWidth=1;" parent="WIyWlLk6GJQsqaUBKTNV-1" source="ANaGKPGg69r5ijw3QTV_-75" target="ANaGKPGg69r5ijw3QTV_-88" edge="1">
          <mxGeometry width="50" height="50" relative="1" as="geometry">
            <mxPoint x="400" y="780" as="sourcePoint" />
            <mxPoint x="440" y="690" as="targetPoint" />
          </mxGeometry>
        </mxCell>
        <mxCell id="ANaGKPGg69r5ijw3QTV_-93" value="" style="endArrow=none;html=1;rounded=0;exitX=1;exitY=1;exitDx=0;exitDy=0;entryX=0;entryY=0;entryDx=0;entryDy=0;strokeWidth=1;" parent="WIyWlLk6GJQsqaUBKTNV-1" source="ANaGKPGg69r5ijw3QTV_-85" target="ANaGKPGg69r5ijw3QTV_-75" edge="1">
          <mxGeometry width="50" height="50" relative="1" as="geometry">
            <mxPoint x="390" y="740" as="sourcePoint" />
            <mxPoint x="440" y="690" as="targetPoint" />
          </mxGeometry>
        </mxCell>
        <mxCell id="ANaGKPGg69r5ijw3QTV_-94" value="" style="endArrow=none;html=1;rounded=0;exitX=0.5;exitY=0;exitDx=0;exitDy=0;entryX=0.5;entryY=1;entryDx=0;entryDy=0;strokeWidth=1;" parent="WIyWlLk6GJQsqaUBKTNV-1" source="ANaGKPGg69r5ijw3QTV_-75" target="ANaGKPGg69r5ijw3QTV_-86" edge="1">
          <mxGeometry width="50" height="50" relative="1" as="geometry">
            <mxPoint x="390" y="740" as="sourcePoint" />
            <mxPoint x="440" y="690" as="targetPoint" />
          </mxGeometry>
        </mxCell>
        <mxCell id="ANaGKPGg69r5ijw3QTV_-95" value="" style="endArrow=none;html=1;rounded=0;exitX=0.5;exitY=0;exitDx=0;exitDy=0;entryX=0;entryY=1;entryDx=0;entryDy=0;strokeWidth=1;" parent="WIyWlLk6GJQsqaUBKTNV-1" source="ANaGKPGg69r5ijw3QTV_-84" target="ANaGKPGg69r5ijw3QTV_-75" edge="1">
          <mxGeometry width="50" height="50" relative="1" as="geometry">
            <mxPoint x="390" y="740" as="sourcePoint" />
            <mxPoint x="440" y="690" as="targetPoint" />
          </mxGeometry>
        </mxCell>
        <mxCell id="ANaGKPGg69r5ijw3QTV_-97" value="" style="endArrow=none;html=1;rounded=0;exitX=0.5;exitY=0;exitDx=0;exitDy=0;entryX=0.558;entryY=1.05;entryDx=0;entryDy=0;entryPerimeter=0;strokeWidth=1;" parent="WIyWlLk6GJQsqaUBKTNV-1" source="ANaGKPGg69r5ijw3QTV_-83" target="ANaGKPGg69r5ijw3QTV_-75" edge="1">
          <mxGeometry width="50" height="50" relative="1" as="geometry">
            <mxPoint x="390" y="740" as="sourcePoint" />
            <mxPoint x="440" y="690" as="targetPoint" />
          </mxGeometry>
        </mxCell>
        <mxCell id="ANaGKPGg69r5ijw3QTV_-98" value="" style="endArrow=none;html=1;rounded=0;exitX=0.5;exitY=0;exitDx=0;exitDy=0;entryX=1;entryY=1;entryDx=0;entryDy=0;strokeWidth=1;" parent="WIyWlLk6GJQsqaUBKTNV-1" source="ANaGKPGg69r5ijw3QTV_-89" target="ANaGKPGg69r5ijw3QTV_-75" edge="1">
          <mxGeometry width="50" height="50" relative="1" as="geometry">
            <mxPoint x="390" y="740" as="sourcePoint" />
            <mxPoint x="440" y="690" as="targetPoint" />
          </mxGeometry>
        </mxCell>
        <mxCell id="KusYwJV6fMYkoyLMFNE0-1" value="&lt;u&gt;ad_id&lt;/u&gt;" style="ellipse;whiteSpace=wrap;html=1;strokeWidth=1;" parent="WIyWlLk6GJQsqaUBKTNV-1" vertex="1">
          <mxGeometry x="8.25" y="230" width="61.75" height="30" as="geometry" />
        </mxCell>
        <mxCell id="KusYwJV6fMYkoyLMFNE0-2" value="" style="endArrow=none;html=1;rounded=0;exitX=0;exitY=0;exitDx=0;exitDy=0;entryX=0.5;entryY=1;entryDx=0;entryDy=0;strokeWidth=1;" parent="WIyWlLk6GJQsqaUBKTNV-1" source="IpHw89K4-DccxEpRs5BE-0" target="KusYwJV6fMYkoyLMFNE0-1" edge="1">
          <mxGeometry width="50" height="50" relative="1" as="geometry">
            <mxPoint x="390" y="250" as="sourcePoint" />
            <mxPoint x="440" y="200" as="targetPoint" />
          </mxGeometry>
        </mxCell>
        <mxCell id="KusYwJV6fMYkoyLMFNE0-5" value="" style="endArrow=none;html=1;rounded=0;entryX=0;entryY=0.5;entryDx=0;entryDy=0;exitX=1;exitY=0.5;exitDx=0;exitDy=0;strokeWidth=1;" parent="WIyWlLk6GJQsqaUBKTNV-1" source="KusYwJV6fMYkoyLMFNE0-7" target="IpHw89K4-DccxEpRs5BE-76" edge="1">
          <mxGeometry width="50" height="50" relative="1" as="geometry">
            <mxPoint x="120" y="140" as="sourcePoint" />
            <mxPoint x="440" y="200" as="targetPoint" />
          </mxGeometry>
        </mxCell>
        <mxCell id="KusYwJV6fMYkoyLMFNE0-6" value="" style="endArrow=none;html=1;rounded=0;exitX=0.5;exitY=0;exitDx=0;exitDy=0;entryX=0.5;entryY=1;entryDx=0;entryDy=0;strokeWidth=1;" parent="WIyWlLk6GJQsqaUBKTNV-1" source="IpHw89K4-DccxEpRs5BE-0" target="KusYwJV6fMYkoyLMFNE0-7" edge="1">
          <mxGeometry width="50" height="50" relative="1" as="geometry">
            <mxPoint x="390" y="250" as="sourcePoint" />
            <mxPoint x="78" y="170" as="targetPoint" />
          </mxGeometry>
        </mxCell>
        <mxCell id="KusYwJV6fMYkoyLMFNE0-8" value="" style="endArrow=none;html=1;rounded=0;entryX=0;entryY=0.5;entryDx=0;entryDy=0;strokeWidth=1;" parent="WIyWlLk6GJQsqaUBKTNV-1" target="KusYwJV6fMYkoyLMFNE0-7" edge="1">
          <mxGeometry width="50" height="50" relative="1" as="geometry">
            <mxPoint x="80" y="100" as="sourcePoint" />
            <mxPoint x="238" y="100" as="targetPoint" />
          </mxGeometry>
        </mxCell>
        <mxCell id="KusYwJV6fMYkoyLMFNE0-7" value="&lt;b&gt;view&lt;/b&gt;" style="rhombus;whiteSpace=wrap;html=1;strokeWidth=1;" parent="WIyWlLk6GJQsqaUBKTNV-1" vertex="1">
          <mxGeometry x="38.25" y="60" width="80" height="80" as="geometry" />
        </mxCell>
        <mxCell id="LwJV0--_XXvyynLvVtDL-3" value="" style="endArrow=none;html=1;rounded=0;entryX=0.5;entryY=1;entryDx=0;entryDy=0;strokeWidth=1;" parent="WIyWlLk6GJQsqaUBKTNV-1" target="IpHw89K4-DccxEpRs5BE-72" edge="1">
          <mxGeometry width="50" height="50" relative="1" as="geometry">
            <mxPoint x="508" y="246" as="sourcePoint" />
            <mxPoint x="508.25" y="146" as="targetPoint" />
          </mxGeometry>
        </mxCell>
        <mxCell id="LwJV0--_XXvyynLvVtDL-4" value="" style="endArrow=none;html=1;rounded=0;exitX=1;exitY=0.5;exitDx=0;exitDy=0;entryX=0;entryY=0.5;entryDx=0;entryDy=0;strokeWidth=1;" parent="WIyWlLk6GJQsqaUBKTNV-1" source="ANaGKPGg69r5ijw3QTV_-75" target="ANaGKPGg69r5ijw3QTV_-51" edge="1">
          <mxGeometry width="50" height="50" relative="1" as="geometry">
            <mxPoint x="390" y="750" as="sourcePoint" />
            <mxPoint x="440" y="700" as="targetPoint" />
          </mxGeometry>
        </mxCell>
        <mxCell id="7kRcTjG0jgf1SX27cnI6-0" value="1" style="text;html=1;align=center;verticalAlign=middle;resizable=0;points=[];autosize=1;strokeColor=none;fillColor=none;" parent="WIyWlLk6GJQsqaUBKTNV-1" vertex="1">
          <mxGeometry x="211.25" y="74" width="30" height="30" as="geometry" />
        </mxCell>
        <mxCell id="7kRcTjG0jgf1SX27cnI6-1" value="*" style="text;html=1;align=center;verticalAlign=middle;resizable=0;points=[];autosize=1;strokeColor=none;fillColor=none;strokeWidth=1;fontSize=20;" parent="WIyWlLk6GJQsqaUBKTNV-1" vertex="1">
          <mxGeometry x="357.25" y="95" width="30" height="40" as="geometry" />
        </mxCell>
        <mxCell id="7kRcTjG0jgf1SX27cnI6-3" value="1" style="text;html=1;align=center;verticalAlign=middle;resizable=0;points=[];autosize=1;strokeColor=none;fillColor=none;" parent="WIyWlLk6GJQsqaUBKTNV-1" vertex="1">
          <mxGeometry x="80" y="260" width="30" height="30" as="geometry" />
        </mxCell>
        <mxCell id="7kRcTjG0jgf1SX27cnI6-4" value="1" style="text;html=1;align=center;verticalAlign=middle;resizable=0;points=[];autosize=1;strokeColor=none;fillColor=none;" parent="WIyWlLk6GJQsqaUBKTNV-1" vertex="1">
          <mxGeometry x="295.25" y="210" width="30" height="30" as="geometry" />
        </mxCell>
        <mxCell id="7kRcTjG0jgf1SX27cnI6-5" value="1" style="text;html=1;align=center;verticalAlign=middle;resizable=0;points=[];autosize=1;strokeColor=none;fillColor=none;" parent="WIyWlLk6GJQsqaUBKTNV-1" vertex="1">
          <mxGeometry x="80" y="320" width="30" height="30" as="geometry" />
        </mxCell>
        <mxCell id="7kRcTjG0jgf1SX27cnI6-8" value="1" style="text;html=1;align=center;verticalAlign=middle;resizable=0;points=[];autosize=1;strokeColor=none;fillColor=none;" parent="WIyWlLk6GJQsqaUBKTNV-1" vertex="1">
          <mxGeometry x="393.13" y="770" width="30" height="30" as="geometry" />
        </mxCell>
        <mxCell id="7kRcTjG0jgf1SX27cnI6-10" value="1" style="text;html=1;align=center;verticalAlign=middle;resizable=0;points=[];autosize=1;strokeColor=none;fillColor=none;" parent="WIyWlLk6GJQsqaUBKTNV-1" vertex="1">
          <mxGeometry x="511.75" y="565" width="30" height="30" as="geometry" />
        </mxCell>
        <mxCell id="7kRcTjG0jgf1SX27cnI6-13" value="*" style="text;html=1;align=center;verticalAlign=middle;resizable=0;points=[];autosize=1;strokeColor=none;fillColor=none;fontSize=20;" parent="WIyWlLk6GJQsqaUBKTNV-1" vertex="1">
          <mxGeometry x="218.25" y="1025" width="30" height="40" as="geometry" />
        </mxCell>
        <mxCell id="7kRcTjG0jgf1SX27cnI6-14" value="1" style="text;html=1;align=center;verticalAlign=middle;resizable=0;points=[];autosize=1;strokeColor=none;fillColor=none;" parent="WIyWlLk6GJQsqaUBKTNV-1" vertex="1">
          <mxGeometry x="621.25" y="1028" width="30" height="30" as="geometry" />
        </mxCell>
        <mxCell id="7kRcTjG0jgf1SX27cnI6-15" value="*" style="text;html=1;align=center;verticalAlign=middle;resizable=0;points=[];autosize=1;strokeColor=none;fillColor=none;fontSize=20;" parent="WIyWlLk6GJQsqaUBKTNV-1" vertex="1">
          <mxGeometry x="155.75" y="975" width="30" height="40" as="geometry" />
        </mxCell>
        <mxCell id="7kRcTjG0jgf1SX27cnI6-16" value="*" style="text;html=1;align=center;verticalAlign=middle;resizable=0;points=[];autosize=1;strokeColor=none;fillColor=none;fontSize=20;" parent="WIyWlLk6GJQsqaUBKTNV-1" vertex="1">
          <mxGeometry x="740.25" y="655" width="30" height="40" as="geometry" />
        </mxCell>
        <mxCell id="7kRcTjG0jgf1SX27cnI6-17" value="*" style="text;html=1;align=center;verticalAlign=middle;resizable=0;points=[];autosize=1;strokeColor=none;fillColor=none;fontSize=20;" parent="WIyWlLk6GJQsqaUBKTNV-1" vertex="1">
          <mxGeometry x="526.25" y="490" width="30" height="40" as="geometry" />
        </mxCell>
        <mxCell id="7kRcTjG0jgf1SX27cnI6-18" value="*" style="text;html=1;align=center;verticalAlign=middle;resizable=0;points=[];autosize=1;strokeColor=none;fillColor=none;fontSize=20;" parent="WIyWlLk6GJQsqaUBKTNV-1" vertex="1">
          <mxGeometry x="77" y="503" width="30" height="40" as="geometry" />
        </mxCell>
        <mxCell id="7kRcTjG0jgf1SX27cnI6-19" value="1" style="text;html=1;align=center;verticalAlign=middle;resizable=0;points=[];autosize=1;strokeColor=none;fillColor=none;" parent="WIyWlLk6GJQsqaUBKTNV-1" vertex="1">
          <mxGeometry x="503.75" y="212" width="30" height="30" as="geometry" />
        </mxCell>
        <mxCell id="7kRcTjG0jgf1SX27cnI6-20" value="*" style="text;html=1;align=center;verticalAlign=middle;resizable=0;points=[];autosize=1;strokeColor=none;fillColor=none;fontSize=20;" parent="WIyWlLk6GJQsqaUBKTNV-1" vertex="1">
          <mxGeometry x="432.25" y="259" width="30" height="40" as="geometry" />
        </mxCell>
        <mxCell id="7kRcTjG0jgf1SX27cnI6-21" value="*" style="text;html=1;align=center;verticalAlign=middle;resizable=0;points=[];autosize=1;strokeColor=none;fillColor=none;fontSize=20;" parent="WIyWlLk6GJQsqaUBKTNV-1" vertex="1">
          <mxGeometry x="271.75" y="375" width="30" height="40" as="geometry" />
        </mxCell>
        <mxCell id="7kRcTjG0jgf1SX27cnI6-22" value="1" style="text;html=1;align=center;verticalAlign=middle;resizable=0;points=[];autosize=1;strokeColor=none;fillColor=none;" parent="WIyWlLk6GJQsqaUBKTNV-1" vertex="1">
          <mxGeometry x="523.25" y="284" width="30" height="30" as="geometry" />
        </mxCell>
        <mxCell id="7kRcTjG0jgf1SX27cnI6-23" value="*" style="text;html=1;align=center;verticalAlign=middle;resizable=0;points=[];autosize=1;strokeColor=none;fillColor=none;fontSize=20;" parent="WIyWlLk6GJQsqaUBKTNV-1" vertex="1">
          <mxGeometry x="338.25" y="411" width="30" height="40" as="geometry" />
        </mxCell>
        <mxCell id="7kRcTjG0jgf1SX27cnI6-24" value="1" style="text;html=1;align=center;verticalAlign=middle;resizable=0;points=[];autosize=1;strokeColor=none;fillColor=none;" parent="WIyWlLk6GJQsqaUBKTNV-1" vertex="1">
          <mxGeometry x="593.25" y="260" width="30" height="30" as="geometry" />
        </mxCell>
        <mxCell id="7kRcTjG0jgf1SX27cnI6-26" value="*" style="text;html=1;align=center;verticalAlign=middle;resizable=0;points=[];autosize=1;strokeColor=none;fillColor=none;fontSize=20;" parent="WIyWlLk6GJQsqaUBKTNV-1" vertex="1">
          <mxGeometry x="183.25" y="435" width="30" height="40" as="geometry" />
        </mxCell>
        <mxCell id="cEh1oul7lH4F2H4L0KoV-0" value="*" style="text;html=1;align=center;verticalAlign=middle;resizable=0;points=[];autosize=1;strokeColor=none;fillColor=none;fontSize=20;" vertex="1" parent="WIyWlLk6GJQsqaUBKTNV-1">
          <mxGeometry x="253.25" y="765" width="30" height="40" as="geometry" />
        </mxCell>
      </root>
    </mxGraphModel>
  </diagram>
</mxfile>
